<svg width="163" height="163" viewBox="0 0 163 163" fill="none" xmlns="http://www.w3.org/2000/svg">
<path d="M0 0H163V163H0V0Z" fill="#CD970E"/>
<path d="M57.4545 127V57.1818H81.0455C86.5227 57.1818 91 58.1705 94.4773 60.1477C97.9773 62.1023 100.568 64.75 102.25 68.0909C103.932 71.4318 104.773 75.1591 104.773 79.2727C104.773 83.3864 103.932 87.125 102.25 90.4886C100.591 93.8523 98.0227 96.5341 94.5455 98.5341C91.0682 100.511 86.6136 101.5 81.1818 101.5H64.2727V94H80.9091C84.6591 94 87.6705 93.3523 89.9432 92.0568C92.2159 90.7614 93.8636 89.0114 94.8864 86.8068C95.9318 84.5795 96.4545 82.0682 96.4545 79.2727C96.4545 76.4773 95.9318 73.9773 94.8864 71.7727C93.8636 69.5682 92.2045 67.8409 89.9091 66.5909C87.6136 65.3182 84.5682 64.6818 80.7727 64.6818H65.9091V127H57.4545Z" fill="white"/>
</svg>
